<svg xmlns="http://www.w3.org/2000/svg" version="1.1" xmlns:xlink="http://www.w3.org/1999/xlink" width="200" height="200"><svg xmlns="http://www.w3.org/2000/svg" version="1.1" xmlns:xlink="http://www.w3.org/1999/xlink" width="200" height="200"><svg xmlns="http://www.w3.org/2000/svg" version="1.1" xmlns:xlink="http://www.w3.org/1999/xlink" viewBox="0 0 200 200"><rect width="200" height="200" fill="url('#gradient')"></rect><defs><linearGradient id="gradient" gradientTransform="rotate(45 0.5 0.5)"><stop offset="0%" stop-color="#000000"></stop><stop offset="100%" stop-color="#000000"></stop></linearGradient></defs><g><g fill="#9966c7" transform="matrix(2.7761919601121843,0,0,2.7761919601121843,12.427054091774451,114.89548039696379)" stroke="#ffffff" stroke-width="0.2"><path d="M10.11-14.22L12.09-5.30L13.72-14.22L17.12-14.22L14.10 0L10.55 0L8.64-8.11L6.78 0L3.23 0L0.21-14.22L3.61-14.22L5.24-5.30L7.20-14.22L10.11-14.22ZM17.60-4.82L17.59-5.38Q17.59-6.96 18.20-8.20Q18.82-9.43 19.97-10.10Q21.12-10.76 22.68-10.76L22.68-10.76Q25.05-10.76 26.42-9.29Q27.78-7.82 27.78-5.29L27.78-5.29L27.78-5.18Q27.78-2.71 26.41-1.25Q25.04 0.20 22.70 0.20L22.70 0.20Q20.44 0.20 19.07-1.16Q17.71-2.51 17.60-4.82L17.60-4.82ZM20.89-5.77L20.88-5.18Q20.88-3.71 21.34-3.03Q21.80-2.34 22.70-2.34L22.70-2.34Q24.45-2.34 24.49-5.05L24.49-5.05L24.49-5.38Q24.49-8.22 22.68-8.22L22.68-8.22Q21.03-8.22 20.89-5.77L20.89-5.77ZM35.68-10.64L35.63-7.59L34.54-7.67Q32.99-7.67 32.55-6.69L32.55-6.69L32.55 0L29.26 0L29.26-10.57L32.34-10.57L32.45-9.21Q33.28-10.76 34.77-10.76L34.77-10.76Q35.29-10.76 35.68-10.64L35.68-10.64ZM36.21-5.36L36.21-5.36Q36.21-7.87 37.29-9.32Q38.38-10.76 40.32-10.76L40.32-10.76Q41.74-10.76 42.71-9.65L42.71-9.65L42.71-15L46.01-15L46.01 0L43.05 0L42.88-1.13Q41.87 0.20 40.30 0.20L40.30 0.20Q38.42 0.20 37.31-1.25Q36.21-2.70 36.21-5.36ZM39.51-5.76L39.50-5.16Q39.50-2.34 41.14-2.34L41.14-2.34Q42.24-2.34 42.71-3.26L42.71-3.26L42.71-7.29Q42.26-8.22 41.16-8.22L41.16-8.22Q39.64-8.22 39.51-5.76L39.51-5.76ZM51.35-15L51.35 0L48.05 0L48.05-15L51.35-15ZM55.93-10.57L57.60-4.61L59.36-10.57L62.88-10.57L58.57 1.77L58.39 2.22Q57.47 4.27 55.15 4.27L55.15 4.27Q54.50 4.27 53.79 4.07L53.79 4.07L53.79 1.72L54.22 1.72Q54.91 1.72 55.28 1.52Q55.64 1.32 55.82 0.80L55.82 0.80L56.08 0.10L52.41-10.57L55.93-10.57Z"></path></g></g></svg></svg><style>@media (prefers-color-scheme: light) { :root { filter: none; } }
@media (prefers-color-scheme: dark) { :root { filter: none; } }
</style></svg>